<?xml version="1.0" encoding="UTF-8"?>
<svg width="763px" height="345px" viewBox="0 0 763 345" version="1.1" xmlns="http://www.w3.org/2000/svg" xmlns:xlink="http://www.w3.org/1999/xlink">
    <title>phico-colour</title>
    <g id="phico-colour" stroke="none" stroke-width="1" fill="none" fill-rule="evenodd">
        <g id="phico">
            <g id="p" transform="translate(0.000000, 77.000000)" fill="#F72585">
                <path d="M73.1332583,0 L122.242188,0 L122.242188,0 L67,268 L25.8484373,268 C14.2504576,268 4.84843731,258.59798 4.84843731,247 C4.84843731,245.554971 4.99758682,244.113802 5.293515,242.699399 L52.578336,16.699399 C54.6140472,6.96962288 63.1928024,-5.27939523e-15 73.1332583,0 Z" id="Rectangle"></path>
                <path d="M136.072266,0 L176.465986,0 C188.063966,1.42219936e-15 197.465986,9.40202025 197.465986,21 C197.465986,22.4257984 197.32078,23.8478902 197.032615,25.2442647 L166.283996,174.244265 C164.270585,184.000739 155.679425,191 145.717367,191 L96.6953125,191 L96.6953125,191 L136.072266,0 Z" id="Rectangle"></path>
            </g>
            <g id="h" transform="translate(176.000000, 0.000000)" fill="#7209B7">
                <path d="M73.1332583,0 L122.242188,0 L122.242188,0 L67,268 L25.8484373,268 C14.2504576,268 4.84843731,258.59798 4.84843731,247 C4.84843731,245.554971 4.99758682,244.113802 5.293515,242.699399 L52.578336,16.699399 C54.6140472,6.96962288 63.1928024,-5.27939523e-15 73.1332583,0 Z" id="Rectangle"></path>
                <path d="M120.072266,77 L160.465986,77 C172.063966,77 181.465986,86.4020203 181.465986,98 C181.465986,99.4257984 181.32078,100.84789 181.032615,102.244265 L150.283996,251.244265 C148.270585,261.000739 139.679425,268 129.717367,268 L80.6953125,268 L80.6953125,268 L120.072266,77 Z" id="Rectangle"></path>
            </g>
            <g id="i" transform="translate(337.000000, 0.000000)" fill="#3A0CA3">
                <path d="M39.3769531,77 L105.546875,77 L69.5886831,251.244265 C67.5752729,261.000739 58.9841128,268 49.0220543,268 L25.7710387,268 C14.173059,268 4.77103871,258.59798 4.77103871,247 C4.77103871,245.575578 4.91596467,244.154853 5.20357778,242.75977 L39.3769531,77 L39.3769531,77 Z" id="Rectangle"></path>
                <path d="M72.131552,0 L95.5383488,0 C107.136329,-2.13051432e-15 116.538349,9.40202025 116.538349,21 C116.538349,22.3755599 116.403195,23.747792 116.134835,25.0969207 L108.396484,64 L108.396484,64 L42,64 L51.5491268,16.8330137 C53.5317568,7.04000492 62.1398633,1.83544343e-15 72.131552,0 Z" id="Rectangle"></path>
            </g>
            <g id="c" transform="translate(416.000000, 77.000000)" fill="#4361EE">
                <path d="M93.6210937,127 L159.791016,127 L150.235642,174.1694 C148.252048,183.961269 139.644469,191 129.653706,191 L80.6953125,191 L80.6953125,191 L93.6210937,127 Z" id="Rectangle"></path>
                <path d="M120.072266,0 L160.415033,0 C172.013012,-2.13051432e-15 181.415033,9.40202025 181.415033,21 C181.415033,22.4393696 181.267049,23.8749255 180.973416,25.2840261 L172.697266,65 L172.697266,65 L106.566406,65 L120.072266,0 Z" id="Rectangle"></path>
                <path d="M57.2341341,2.27373675e-13 L106.363281,2.27373675e-13 L106.363281,2.27373675e-13 L67,191 L25.8791051,191 C14.2811253,191 4.87910507,181.59798 4.87910507,170 C4.87910507,168.546826 5.02994069,167.097577 5.32918732,165.675549 L36.6842164,16.6755485 C38.7293338,6.9570915 47.3028244,2.39856168e-13 57.2341341,2.27373675e-13 Z" id="Rectangle"></path>
            </g>
            <g id="o" transform="translate(576.000000, 77.000000)" fill="#4CC9F0">
                <path d="M57.1236166,0 L106.242188,0 L106.242188,0 L67,191 L25.8630534,191 C14.2650736,191 4.86305336,181.59798 4.86305336,170 C4.86305336,168.551088 5.01300557,167.106066 5.31051363,165.688027 L36.5710769,16.6880271 C38.6112756,6.96364669 47.1875216,-5.28019631e-15 57.1236166,0 Z" id="Rectangle"></path>
                <path d="M120.072266,0 L160.465986,0 C172.063966,1.42219936e-15 181.465986,9.40202025 181.465986,21 C181.465986,22.4257984 181.32078,23.8478902 181.032615,25.2442647 L150.283996,174.244265 C148.270585,184.000739 139.679425,191 129.717367,191 L80.6953125,191 L80.6953125,191 L120.072266,0 Z" id="Rectangle"></path>
            </g>
        </g>
    </g>
</svg>
